<svg width="86" height="24" viewBox="0 0 86 24" version="1.1" xmlns="http://www.w3.org/2000/svg" xmlns:xlink="http://www.w3.org/1999/xlink">
<title>Group 2</title>
<desc>Created using Figma</desc>
<g id="Canvas" transform="translate(-3980 581)">
<g id="Group 2">
<g id="beryl">
<use xlink:href="#path0_fill" transform="translate(4015.26 -578.562)" fill="#1A535C"/>
<use xlink:href="#path1_fill" transform="translate(4015.26 -578.562)" fill="#1A535C"/>
<use xlink:href="#path2_fill" transform="translate(4015.26 -578.562)" fill="#1A535C"/>
<use xlink:href="#path3_fill" transform="translate(4015.26 -578.562)" fill="#1A535C"/>
<use xlink:href="#path4_fill" transform="translate(4015.26 -578.562)" fill="#1A535C"/>
</g>
<g id="Group">
<g id="Group">
<g id="Group">
<g id="Vector">
<use xlink:href="#path5_fill" transform="translate(3980 -575.242)" fill="#31AFA3"/>
</g>
<g id="Vector">
<use xlink:href="#path6_fill" transform="translate(3991.41 -569.707)" fill="url(#paint6_linear)"/>
</g>
<g id="Vector">
<use xlink:href="#path7_fill" transform="translate(3985.69 -581)" fill="#31AFA3"/>
</g>
<g id="Vector">
<use xlink:href="#path8_fill" transform="translate(3985.69 -577.505)" fill="url(#paint8_linear)"/>
</g>
<g id="Vector">
<use xlink:href="#path9_fill" transform="translate(3985.69 -575.242)" fill="#31AFA3"/>
</g>
</g>
</g>
</g>
</g>
</g>
<defs>
<linearGradient id="paint6_linear" x1="0" y1="0" x2="1" y2="0" gradientUnits="userSpaceOnUse" gradientTransform="matrix(2.72507 -7.57621 7.48708 2.75751 -1.08727 7.36323)">
<stop offset="0" stop-color="#000000" stop-opacity="0"/>
<stop offset="0.5" stop-color="#000000" stop-opacity="0.1"/>
<stop offset="1" stop-color="#000000" stop-opacity="0"/>
</linearGradient>
<linearGradient id="paint8_linear" x1="0" y1="0" x2="1" y2="0" gradientUnits="userSpaceOnUse" gradientTransform="matrix(0 -8.02854 7.93409 0 -2.00321 8.02623)">
<stop offset="0" stop-color="#000000" stop-opacity="0"/>
<stop offset="0.5" stop-color="#000000" stop-opacity="0.1"/>
<stop offset="1" stop-color="#000000" stop-opacity="0"/>
</linearGradient>
<path id="path0_fill" d="M 7.4952 11.0808C 7.4952 9.972 7.272 9.0936 6.8256 8.4456C 6.3936 7.7976 5.7024 7.4736 4.752 7.4736C 4.32 7.4736 3.9096 7.5384 3.5208 7.668C 3.1464 7.7976 2.844 7.9416 2.6136 8.1L 2.6136 14.6016C 2.8008 14.6448 3.0384 14.688 3.3264 14.7312C 3.6288 14.76 3.9888 14.7744 4.4064 14.7744C 5.3712 14.7744 6.1272 14.4504 6.6744 13.8024C 7.2216 13.14 7.4952 12.2328 7.4952 11.0808ZM 10.1736 11.124C 10.1736 12.0312 10.0368 12.852 9.7632 13.5864C 9.504 14.3064 9.1224 14.9256 8.6184 15.444C 8.1288 15.9624 7.5312 16.3584 6.8256 16.632C 6.12 16.9056 5.3208 17.0424 4.428 17.0424C 3.564 17.0424 2.736 16.9776 1.944 16.848C 1.1664 16.7184 0.5184 16.5744 0 16.416L 0 0.432001L 2.6136 0L 2.6136 5.8536C 2.916 5.6952 3.2832 5.5512 3.7152 5.4216C 4.1616 5.292 4.6512 5.2272 5.184 5.2272C 5.976 5.2272 6.6816 5.3712 7.3008 5.6592C 7.9344 5.9328 8.46 6.3288 8.8776 6.8472C 9.2952 7.3656 9.612 7.992 9.828 8.7264C 10.0584 9.4464 10.1736 10.2456 10.1736 11.124Z"/>
<path id="path1_fill" d="M 12.2408 11.1672C 12.2408 10.1736 12.3848 9.3024 12.6728 8.5536C 12.9752 7.8048 13.3712 7.1856 13.8608 6.696C 14.3504 6.192 14.912 5.8176 15.5456 5.5728C 16.1792 5.3136 16.8272 5.184 17.4896 5.184C 19.0448 5.184 20.2544 5.6664 21.1184 6.6312C 21.9968 7.596 22.436 9.036 22.436 10.9512C 22.436 11.0952 22.4288 11.2608 22.4144 11.448C 22.4144 11.6208 22.4072 11.7792 22.3928 11.9232L 14.9408 11.9232C 15.0128 12.8304 15.3296 13.536 15.8912 14.04C 16.4672 14.5296 17.2952 14.7744 18.3752 14.7744C 19.0088 14.7744 19.5848 14.7168 20.1032 14.6016C 20.636 14.4864 21.0536 14.364 21.356 14.2344L 21.7016 16.3728C 21.5576 16.4448 21.356 16.524 21.0968 16.6104C 20.852 16.6824 20.564 16.7472 20.2328 16.8048C 19.916 16.8768 19.5704 16.9344 19.196 16.9776C 18.8216 17.0208 18.44 17.0424 18.0512 17.0424C 17.0576 17.0424 16.1936 16.8984 15.4592 16.6104C 14.7248 16.308 14.12 15.8976 13.6448 15.3792C 13.1696 14.8464 12.8168 14.2272 12.5864 13.5216C 12.356 12.8016 12.2408 12.0168 12.2408 11.1672ZM 19.8224 10.0008C 19.8224 9.6408 19.772 9.3024 19.6712 8.9856C 19.5704 8.6544 19.4192 8.3736 19.2176 8.1432C 19.0304 7.8984 18.7928 7.7112 18.5048 7.5816C 18.2312 7.4376 17.9 7.3656 17.5112 7.3656C 17.108 7.3656 16.7552 7.4448 16.4528 7.6032C 16.1504 7.7472 15.8912 7.9416 15.6752 8.1864C 15.4736 8.4312 15.3152 8.712 15.2 9.0288C 15.0848 9.3456 15.0056 9.6696 14.9624 10.0008L 19.8224 10.0008Z"/>
<path id="path2_fill" d="M 31.6438 7.8192C 31.4278 7.7472 31.1254 7.6752 30.7366 7.6032C 30.3622 7.5168 29.923 7.4736 29.419 7.4736C 29.131 7.4736 28.8214 7.5024 28.4902 7.56C 28.1734 7.6176 27.9502 7.668 27.8206 7.7112L 27.8206 16.7616L 25.207 16.7616L 25.207 6.0048C 25.711 5.8176 26.3374 5.6448 27.0862 5.4864C 27.8494 5.3136 28.6918 5.2272 29.6134 5.2272C 29.7862 5.2272 29.9878 5.2416 30.2182 5.2704C 30.4486 5.2848 30.679 5.3136 30.9094 5.3568C 31.1398 5.3856 31.363 5.4288 31.579 5.4864C 31.795 5.5296 31.9678 5.5728 32.0974 5.616L 31.6438 7.8192Z"/>
<path id="path3_fill" d="M 43.5216 5.4648C 42.3552 9.756 41.0016 13.644 39.4608 17.1288C 39.1728 17.7768 38.8776 18.3312 38.5752 18.792C 38.2728 19.2528 37.9344 19.6344 37.56 19.9368C 37.1856 20.2392 36.768 20.4552 36.3072 20.5848C 35.8464 20.7288 35.3136 20.8008 34.7088 20.8008C 34.3056 20.8008 33.9024 20.7576 33.4992 20.6712C 33.1104 20.5848 32.8152 20.4912 32.6136 20.3904L 33.0888 18.2952C 33.6072 18.4968 34.1184 18.5976 34.6224 18.5976C 35.2992 18.5976 35.8248 18.432 36.1992 18.1008C 36.588 17.784 36.9264 17.2872 37.2144 16.6104C 36.3936 15.0264 35.6016 13.2984 34.8384 11.4264C 34.0896 9.5544 33.42 7.5672 32.8296 5.4648L 35.616 5.4648C 35.76 6.0696 35.9328 6.7248 36.1344 7.4304C 36.3504 8.136 36.5808 8.856 36.8256 9.5904C 37.0704 10.3104 37.3296 11.0304 37.6032 11.7504C 37.8768 12.4704 38.1504 13.14 38.424 13.7592C 38.8848 12.4776 39.3168 11.1168 39.72 9.6768C 40.1232 8.2224 40.4904 6.8184 40.8216 5.4648L 43.5216 5.4648Z"/>
<path id="path4_fill" d="M 49.4304 16.9776C 48.6528 16.9632 48.0048 16.8768 47.4864 16.7184C 46.9824 16.56 46.5792 16.3368 46.2768 16.0488C 45.9744 15.7464 45.7584 15.3792 45.6288 14.9472C 45.5136 14.5008 45.456 13.9968 45.456 13.4352L 45.456 0.432001L 48.0696 0L 48.0696 12.9384C 48.0696 13.2552 48.0912 13.5216 48.1344 13.7376C 48.192 13.9536 48.2856 14.1408 48.4152 14.2992C 48.5448 14.4432 48.7176 14.5584 48.9336 14.6448C 49.164 14.7168 49.452 14.7744 49.7976 14.8176L 49.4304 16.9776Z"/>
<path id="path5_fill" d="M 9.01367 -2.12481e-07L 0 -2.12481e-07L 0 9.12097C 0 14.1549 4.03895 18.2419 9.01367 18.2419C 13.9884 18.2419 18.0273 14.1549 18.0273 9.12097C 18.0273 4.08703 13.9884 -2.12481e-07 9.01367 -2.12481e-07ZM 9.01367 14.7955C 5.91737 14.7955 3.40593 12.2541 3.40593 9.12097L 3.40593 3.44647L 9.01367 3.44647C 12.11 3.44647 14.6214 5.98781 14.6214 9.12097C 14.6214 12.2541 12.11 14.7955 9.01367 14.7955Z"/>
<path id="path6_fill" d="M 6.6192 3.58573C 6.6192 2.31157 6.35773 1.10009 5.89673 -2.12481e-07C 5.27747 0.75892 4.3417 1.2463 3.29584 1.2463C 3.08942 1.2463 2.883 1.22541 2.69034 1.1906C 3.02749 1.92167 3.21327 2.73629 3.21327 3.59269C 3.21327 5.85553 1.89906 7.81201 2.09981e-07 8.72411C 1.03898 9.04439 2.14677 9.21845 3.28896 9.21845C 3.79125 9.21845 4.28665 9.18364 4.7683 9.12098C 5.93113 7.58225 6.6192 5.66057 6.6192 3.58573Z"/>
<path id="path7_fill" d="M 9.01367 0L -2.09981e-07 0L -2.09981e-07 9.12097C -2.09981e-07 14.1549 4.03895 18.2419 9.01367 18.2419C 13.9884 18.2419 18.0273 14.1549 18.0273 9.12097C 18.0273 4.08703 13.9884 0 9.01367 0ZM 9.01367 14.7955C 5.91737 14.7955 3.40593 12.2541 3.40593 9.12097L 3.40593 3.44647L 9.01367 3.44647C 12.11 3.44647 14.6214 5.98781 14.6214 9.12097C 14.6214 12.2541 12.11 14.7955 9.01367 14.7955Z"/>
<path id="path8_fill" d="M -2.09981e-07 5.62576C -2.09981e-07 6.43342 0.10321 7.22019 0.302749 7.97215L 3.33024 7.97215C 3.53666 7.97215 3.74308 7.99304 3.93574 8.02785C 3.59859 7.29678 3.41281 6.48216 3.41281 5.62576L 3.41281 5.31202e-08C 3.38529 5.31202e-08 3.35776 5.31202e-08 3.33024 5.31202e-08L -2.09981e-07 5.31202e-08L -2.09981e-07 5.62576Z"/>
<path id="path9_fill" d="M -2.09981e-07 3.36292C -2.09981e-07 3.39077 -2.09981e-07 3.41862 -2.09981e-07 3.44648L 3.32336 3.44648C 3.35088 3.44648 3.37841 3.44648 3.40593 3.44648C 3.40593 3.41862 3.40593 3.39077 3.40593 3.36292L 3.40593 -2.12481e-07C 3.37841 -2.12481e-07 3.35088 -2.12481e-07 3.32336 -2.12481e-07L -2.09981e-07 -2.12481e-07L -2.09981e-07 3.36292Z"/>
</defs>
</svg>
